<svg viewBox="0 0 64 64" xmlns="http://www.w3.org/2000/svg" xmlns:xlink="http://www.w3.org/1999/xlink" width="32" height="32">
  <path d="M32 4 L55 17 L55 43 L32 60 L9 43 L9 17 Z" fill="#06100B" stroke="#9BFF00" stroke-width="4.2" stroke-linejoin="round"/>
  <path d="M32 8 L34 13 L39 15 L34 17 L32 22 L30 17 L25 15 L30 13 Z" fill="#9BFF00"/>
  <path d="M18 24 L24 21 L32 27 L40 21 L46 24 L35 33 L35 49 L29 49 L29 33 Z" fill="#FFFFFF"/>
  <path d="M18 32 L24 36 L24 47 L18 43 Z M40 36 L46 32 L46 43 L40 47 Z" fill="#FFFFFF"/>
</svg>
